<?xml version="1.0" encoding="utf-8"?>
<!-- Generator: Adobe Illustrator 16.0.0, SVG Export Plug-In . SVG Version: 6.00 Build 0)  -->
<!DOCTYPE svg PUBLIC "-//W3C//DTD SVG 1.1//EN" "http://www.w3.org/Graphics/SVG/1.1/DTD/svg11.dtd">
<svg version="1.1" id="Layer_1" xmlns="http://www.w3.org/2000/svg" xmlns:xlink="http://www.w3.org/1999/xlink" x="0px" y="0px"
	 width="600px" height="315px" viewBox="0 0 600 315" enable-background="new 0 0 600 315" xml:space="preserve">
<g>
	<path d="M436.182,216.848c2.168-5.461,2.816-8.887,1.866-9.83c-0.824-0.832-1.577,5.416-2.358,5.895
		c-0.574,0.357-0.181,1.832-0.856,2.787c-0.71,1.016-0.028-4.023,0.999-7.346c0.905-2.928,0.896-7.428-0.017-8.336
		c-0.421-0.424-1.093,0.865-0.875,1.672c0.272,1.01-0.617,5.385-1.07,5.232c-0.567-0.191-0.503-2.572,0.191-6.975
		c1.333-8.422-3.643-14.697-4.642-18.668c-0.432-1.721-1.044-1.092-1.044-2.523c0-1.326-1.998-6.1-2.659-8.525
		c-0.613-2.252-1.584-4.758-2.961-9.313c-1.485-4.932-1.998-6.597-1.048,1.518c0.35,2.977,0.71,6.838,0.797,8.584
		c0.176,3.313,0.673,4.863,0.673,2.094c0-2.07,0.753-2.049,1.087,0.037c0.143,0.891,0.438,2.414,0.655,3.387
		c0.938,4.168,2.36,24.061,0.541,38.512c-0.632-14.207,0.542-16.207-0.95-30.926c-0.792-7.803-1.332-11.186-1.332-8.34
		c0,0.545-0.268,0.938-0.649,0.938c-0.862,0-0.382-0.725-1.294-8.01c-0.362-2.857-0.94-7.963-1.29-11.345
		c-1.087-10.515-3.817-21.065-5.504-21.27c-1.492-0.179-3.441-6.29-2.731-8.573c0.328-1.058-0.71-1.954-2.623-3.979
		c-15.335-0.017-27.471-0.34-34.286,3.315c-0.962,0.509-4.206,6.717-5.101,9.743c-0.581,1.973-1.239,2.289-4.981,2.397
		c-3.895,0.116-7.815,1.902-8.662,3.939c-0.992,2.403-3.668,2.818-8.666,1.343c-9.405-2.775-8.705-4.676-12.988-6.97
		c-1.697-0.911-5.167-3.712-10.176-6.694c-5.073-3.021-5.077-3.856-8.011-5.412c-2.069-1.1-16.934-9.935-20.534-11.399
		c-1.339-0.544-5.39-4.013-9.126-5.717c-8.848-4.019-13.087-8.121-26.5,0.459c-4.714,3.019-3.835,0.917,1.162-2.78
		c3.927-2.902,9.498-7.948,9.515-8.619c0.021-0.786,1.311-0.348,1.311-0.934c0-0.212,0.544-0.578,1.207-0.808
		c0.661-0.234,2.572-1.665,4.249-3.185c4.28-3.889,8.306-7.067,12.081-10.338c4.364-3.786,7.389-6.199,9.657-7.712
		c2.67-1.779,2.84-2.828,0.498-3.031c-1.979-0.163-0.901-0.327-12.45,8.898c-2.287,1.83-15.945,12.397-14.716,13.156
		c0.432,0.269,0.436,0.46,0.033,0.863c-0.376,0.376-0.672,0.393-1.087,0.049c-0.897-0.743-24.071,19.768-24.211,19.908
		c-2.228,2.153-11.766,6.587-4.511,1.229c2.063-1.524,4.84-3.97,11.202-9.886c3.03-2.818,7.614-6.432,9.569-8.234
		c0,0,13.898-11.574,24.072-20.47c2.754-2.41,5.511-4.463,6.173-4.599c1.667-0.333,1.667-1.862,0-1.862
		c-2.245,0.006-3.986,1.541-20.678,16.236c-9.477,8.341-11.621,9.336-19.502,16.659c-4.988,4.632-7.975,7.471-11.147,10.11
		c-12.853,10.694-3.124,3.889-14.391,10c-8.74,4.735-16.304,8.313-24.47,11.552c-10.785,4.28-9.169,5.428-19.055,18.833
		c-8.007,10.863-9.902,13.171-11.67,17.355c-8.199,19.395-10.848,22.766-10.848,22.766c0,0.223-1.135,2.688-2.527,5.467
		c-3.382,6.783-3.628,8.355-1.595,10.268c3.322,3.135-0.116,3.637,0.458,5.449c0.307,0.963-0.338,0.535-2.615,4.063
		c-4.397,6.801-3.479,3.098-11.367,17.969c-3.341,6.305-6.695,11.191-0.179,5.102c16.444-15.373,20.005-21.377,22.042-18.117
		c4.757,7.625,18.811-1.623,22.836-15.025c0.474-1.584,0.688-0.195,1.543-2.379c0.814-2.088,3.452-7.543,3.452-7.975
		c0-0.973,2.441-7.957,3.234-9.24c0.513-0.83,1.186-2.146,1.501-2.922c1.879-4.666,1.473,3.773,2.577,7.395
		c0.5,1.639,1.349,8.143,1.349,10.326c0,0.854,0.291,1.793,0.645,2.092c0.36,0.295,0.649,0.732,0.649,0.967
		c0,1.41,4.164,9.406,5.124,9.844c1.878,0.855,7.891,6.963,19.131,11.07c15.276,5.588,0.289,3.086-6.921,3.33l-3.691,0.121
		c3.834,0.377,10.048,1.02,15.374,1.305c10.858,0.574,14.086,2.027,40.019,3.506c19.993,1.143,17.016,1.895,5.646,1.055
		c-8.088-0.596-28.401-1.508-31.158-1.977c-9.133-1.535-45.915-0.262-14.938,0.404c6.308,0.137,13.327,0.438,15.587,0.672
		c12.152,1.262,42.442,2.555,42.442,1.818c0-0.773,10.466-0.645,14.578,0.18c3.613,0.732,63.249,1.389,61.488,0.684
		c-0.655-0.27-0.698-0.408-0.218-0.807c0.438-0.361,0.799-0.326,1.427,0.129c1.256,0.918-0.597,0.613,1.971,1.066
		c6.528,1.162,12.752-0.453,3.68-0.453c-3.042,0-4.542-0.16-4.542-0.48c0-0.352,4.647-0.395,17.045-0.166
		c17.237,0.328,20.557,0.121,17.428-1.07c-2.004-0.758-1.151-0.879,3.175-0.432c4.255,0.443,5.429,0.154,4.91-1.201
		c-0.214-0.555-0.065-0.627,0.781-0.361c2.424,0.76,17.291,0.832,17.291,0.084c0-0.619-0.852-0.711-7.041-0.738
		c-7.918-0.039-13.249-0.607-18.137-0.426c-0.389,0.018-0.813,0.439-0.943,0.934c-0.204,0.77-0.455,0.863-1.673,0.629
		c-1.311-0.252-1.368-0.225-0.655,0.35c1.709,1.371-4.217,1.541-28.606,0.809c-9.405-0.283-1.874-0.969,9.847-0.891
		c7.148,0.045,13.123-0.055,13.281-0.213c0.414-0.414-4.444-0.188-5.702-0.727c-0.529-0.229,1.809-0.379,6.101-0.398
		c6.931-0.033,6.963-0.037,6.931-1.004c-0.043-1.156-1.988-1.262,28.347-0.078c7.803,0.303,9.567-0.111,7.279-1.717
		c-0.546-0.383-1.089-0.504-1.225-0.281c-0.137,0.223-3.457,0.436-7.383,0.475c-8.669,0.088-8.652,0.088-8.652-0.492
		c0-0.277,0.813-0.414,2.06-0.35c2.812,0.158,8.782-0.125,7.575-0.355c-2.601-0.5-0.774-1.104,2.388-0.785
		c4.304,0.438,6.257,0.344,6.662-0.313c1.359-2.195-9.717-0.268-11.273-1.828c-2.991-2.994,10.777-0.41,10.777-2.174
		c0-1.18-1.278-3.256-2.005-3.256c-0.486,0-0.589-0.219-0.36-0.76c0.556-1.299,0.753-3.141,0.332-3.141
		c-0.52,0-2.086,2.125-2.479,3.365c-0.295,0.928-1.115,1.365-1.115,0.6C434.007,222.488,434.985,219.861,436.182,216.848z
		 M406.289,234.91c1.601,0.396,4.455,0.156,4.178,0.609c-0.289,0.471-4.308,0.109-4.827-0.432
		C405.345,234.777,405.547,234.723,406.289,234.91z M162.098,204.738c-0.267,0.518-0.486,1.35-0.486,1.842
		c0,0.928-1.042,1.232-1.529,0.447C159.728,206.447,162.857,203.264,162.098,204.738z M162.65,212.92
		c0.415,1.098,0.301,4.004-0.175,4.299c-0.234,0.148-0.431,0.699-0.431,1.236c0,1.611-1.541,4.111-4.412,7.164
		c-4.63,4.916-12.453,14.107-6.106,3.984c3.38-5.389,4.915-8,5.266-8.271C157.625,220.676,161.897,210.965,162.65,212.92z
		 M164.207,207.258c0,0.369-0.389,0.648-0.918,0.648c-0.765,0-0.83-0.104-0.376-0.648
		C163.519,206.525,164.207,206.301,164.207,207.258z M414.734,231.293c2.768,0,4.979,0.176,4.979,0.398
		c0,0.666-1.643,0.77-8.333,0.523C407.327,232.068,410.146,231.293,414.734,231.293z M401.608,231.764
		c-0.474-0.035-1.818-1.115,5.764-0.492C407.742,231.297,408.021,232.199,401.608,231.764z M381.932,233.492
		c-2.688-0.02-4.223-0.207-4.223-0.502c0-0.451,22.492-0.529,23.709-0.074C404.913,234.219,392.614,233.586,381.932,233.492z
		 M397.678,231.725c-3.464,0-3.928-0.781-0.459-0.748C400.703,231.008,401.118,231.725,397.678,231.725z M393.669,231.342
		c-0.771,0.486-1.673,0.486-1.673-0.006c0-0.523,1.279-0.979,1.819-0.639C394.094,230.865,394.039,231.107,393.669,231.342z
		 M390.03,231.32c-0.317,0.518-3.102,0.531-3.419,0.016c-0.317-0.512,1.774-1.016,2.829-0.68
		C389.904,230.801,390.167,231.102,390.03,231.32z M371.718,223.779c3.584,0.24,4.224,0.393,4.396,1.08
		c0.422,1.596,4.447,0.098,3.345,1.436c-0.289,0.344-0.389,0.854-0.219,1.119c0.273,0.445-13.971,0.328-24.918-0.201
		c-4.531-0.219-6.039-0.143-5.198-0.676c1.132-0.719,29.1,0.895,26.772-0.094c-3.271-1.393,1.911-1.91-7.764-2.041
		C358.07,224.266,359.342,222.959,371.718,223.779z M367.239,225.082c3.61,0.166,6.14,0.461,6.14,0.713
		c0,0.453-12.005,0.135-12.471-0.328C360.337,224.891,361.466,224.82,367.239,225.082z M355.622,224.307
		c0,1.148,4.332-0.076,4.332,0.957c0,0.775-4.965,0.158-20.786-0.275c-18.286-0.49-15.609-1.57-8.604-1.232
		c4.692,0.223,5.229,0.174,4.991-0.438c-0.281-0.744,0.171-0.842,1.803-0.404c0.76,0.201,0.869,0.361,0.438,0.633
		c-0.841,0.535,1.939,0.525,1.583-0.049c-0.168-0.279,1.175-0.416,3.763-0.373c4.476,0.072,3.398,0.166,0.139,0.672l2.059,0.066
		c1.131,0.037,2.055-0.115,2.055-0.334c0-0.563,3.614-0.223,3.812,0.355c0.088,0.264,0.775,0.459,1.528,0.432
		c1.301-0.037,1.316-0.061,0.291-0.365c-1.837-0.553,8.132-1.037,6.429,0.021C358.501,224.564,355.622,223.51,355.622,224.307z
		 M321.308,226.838c0.781,0.098,1.307,0.363,1.17,0.584c-0.312,0.506-11.361,0.479-12.545-0.029
		c-0.552-0.234,0.977-0.379,4.222-0.402c6.92-0.039,6.521-0.879,0.436-0.939c-5.515-0.061-13.499-0.678-2.059-0.727
		c7.936-0.031,10.547,0.268,8.422,0.982C319.932,226.646,319.948,226.666,321.308,226.838z M322.844,229.102
		c0.192,0.012,0.212,0.246,0.05,0.516c-0.301,0.486-4.84,0.398-16.531-0.328c-6.194-0.389-5.041-1.104-1.732-0.814
		C308.425,228.809,322.029,229.043,322.844,229.102z M373.159,229.322c-6.607-0.246-18.824-0.641-19.917-1.104
		c-1.207-0.516,16.051,0.229,18.188,0.119c0.715-0.031,2.757,0.061,4.543,0.213C380.462,228.934,378.342,229.514,373.159,229.322z
		 M375.442,230.496c0.732-0.465,3.194-0.088,2.867,0.441c-0.141,0.23-0.545,0.301-0.899,0.17
		C376.337,230.693,374.607,231.025,375.442,230.496z M348.26,232.387c-6.367-0.357-20.731-0.006-18.983-1.164
		c0.928-0.613,14.013,0.234,33.601,0.764C388.295,232.67,368.075,233.492,348.26,232.387z M324.875,229.535
		c1.151-0.793,34.267,0.447,43.305,0.496c8.524,0.043,4.547,1.178,4.313,1.031C371.822,230.648,323.7,230.344,324.875,229.535z
		 M324.443,231.949c-3.032-0.574-20.579-0.4-21.069-1.197c-0.285-0.457,22.188-0.049,22.953,0.422
		C326.986,231.576,325.557,232.162,324.443,231.949z M322.925,225.826l1.081-0.25c2.173-0.51,23.353,0.436,22.44,1.004
		c-0.817,0.502-9.017-0.131-9.017,0.426c0,0.213,1.629,0.387,3.621,0.387c5.315,0,10.716,0.52,9.373,0.9
		c-1.994,0.568-13.976-0.418-21.329-0.496c-7.354-0.07-7.06-0.607,0.415-0.754c7.482-0.154,8.079-0.502,0.957-0.557
		C324.278,226.438,323.863,226.094,322.925,225.826z M378.649,214.191c0.704-1.543,0.943-0.518,2.254-1.193
		c0.739-0.379,0.788-0.295,0.516,0.818c-0.554,2.24-1.574,3.463-2.193,2.615c-0.288-0.395-0.648-0.59-0.802-0.438
		C377.965,216.453,378.098,215.398,378.649,214.191z M381.581,230.424c3.53,0,3.361,0.869,0.27,0.869
		C378.922,231.293,377.861,230.424,381.581,230.424z M362.335,234.975c-20.504-0.486-18.723-0.814-39.312-1.34
		c-31.574-0.797,9.033-0.813,18.736-0.393c41.575,1.799,46.19,1.191,45.043,1.967C385.946,235.789,375.721,235.289,362.335,234.975z
		 M358.998,237.787c5.188,0,6.149,0.104,6.149,0.654C365.147,239.855,343.093,237.787,358.998,237.787z M305.362,236.443
		c1.107-0.443-1.846,0.004,23.826,0.496c21.817,0.422,23.403,0.51,23.403,1.328c0,0.316-1.994,0.389-6.393,0.219
		c-10.747-0.42-21.772-0.574-31.717-1.146C303.947,236.738,303.864,237.045,305.362,236.443z M299.118,234.695
		c-0.769-0.717,69.062,0.799,69.062,1.855C368.18,237.744,299.485,235.039,299.118,234.695z M289.795,223.439
		c0-0.668,1.437,0.037,1.005-1.088c-0.405-1.043,0.974-0.377,0.837,0.225c-0.149,0.66,1.746,0.605,1.43,0.088
		c-0.546-0.887,3.773-1.502,7.817-1.127c4.561,0.428,3.587,0.887-1.541,0.727c-2.503-0.074-4.365,0.045-4.524,0.295
		c-0.337,0.551,3.165,0.738,16.381,0.875c13.335,0.137,16.163,1.07,0.032,0.699C296.262,223.795,289.795,223.902,289.795,223.439z
		 M316.049,222.631c-1.437,0-1.978-0.869-0.535-0.869C316.95,221.762,317.486,222.631,316.049,222.631z M306.471,222.199
		c-0.569-0.246,0.595-0.383,3.358-0.404c2.545-0.018,4.223,0.143,4.223,0.404C314.051,222.729,307.704,222.729,306.471,222.199z
		 M285.033,235.711c0-0.191,0.73-0.279,1.623-0.191C292.483,236.072,285.033,236.197,285.033,235.711z M278.322,234.838
		c3.095,0.279,5.183,0.617,4.629,0.754c-1.266,0.311-5.063-0.201-18.056-0.869C246.366,233.771,254.268,232.676,278.322,234.838z
		 M236.529,228.262c0-0.24,0.398-0.438,0.879-0.438c0.486,0,2.037-0.586,3.452-1.295c2.711-1.369,4.283-1.729,2.874-0.658
		c-1.682,1.271,1.093,1.086-2.566,3.227c-2.316,1.359-3.349,1.518-3.662,0.574c-0.113-0.34,0.231-0.547,0.908-0.547
		c1.479,0,3.418-0.775,3.129-1.246C241.122,227.201,236.529,229.578,236.529,228.262z M236.403,226.355
		c4.495-1.141,4.894-2.064,4.894-1.176c0,0.477-0.836,0.604-3.467,1.729c-2.212,0.943-3.01,1.059-3.808,0.551
		C233.656,227.223,234.492,226.838,236.403,226.355z M230.99,225.498c5.822-1.109,7.985-1.678,9.989-2.621
		c2.802-1.326,3.886-1.443,2.371-0.252c-2.462,1.934-12.413,4.582-13.09,3.486C230.117,225.875,230.445,225.602,230.99,225.498z
		 M240.947,218.213c0.405,0.402,0.289,0.52-0.519,0.52c-0.808,0-0.922-0.117-0.519-0.52
		C240.314,217.809,240.544,217.809,240.947,218.213z M236.967,212.02c-0.301-0.355-0.892-0.65-1.317-0.65
		c-1.835,0-2.802-0.955-1.485-1.459c0.764-0.295,6.264,1.791,6.264,2.371C240.428,212.93,237.539,212.713,236.967,212.02z
		 M242.461,214.225c0.087,0.258-0.191,0.443-0.613,0.412c-0.425-0.033-0.82-0.238-0.879-0.471
		C240.817,213.592,242.27,213.646,242.461,214.225z M241.729,221.291c-0.847,0.586-4.463,1.57-5.849,2.002
		c-0.82,0.256-1.083,0.201-1.083-0.221c0-0.234,0.535-0.535,1.19-0.672C240.756,221.424,242.996,220.412,241.729,221.291z
		 M229.281,224.123c0.896-0.16,1.738-0.465,1.868-0.672c0.311-0.51,1.485-0.498,1.485,0.01c0,0.83-5.828,2.502-6.263,1.797
		C226.102,224.826,226.757,224.57,229.281,224.123z M225.054,223.5c0.371-0.602,0.96-0.094,4.206-1.262
		c2.304-0.83,4.259-1.322,9.436-2.371c1.546-0.311,3.01-0.645,3.246-0.742c0.24-0.098,0.474,0.021,0.523,0.256
		c0.094,0.453-0.671,0.672-9.179,2.633c-2.863,0.656-5.491,1.35-5.851,1.541C226.501,224.057,224.737,224.012,225.054,223.5z
		 M222.914,222.227c0.486-0.018,2.927-0.689,5.413-1.49c3.899-1.262,10.973-2.459,10.25-1.738c-0.136,0.137-2.063,0.607-4.288,1.045
		c-2.222,0.441-5.4,1.287-7.071,1.877c-3.479,1.238-3.2,1.195-4.325,0.711C222.035,222.264,222.035,222.26,222.914,222.227z
		 M221.23,220.691c-0.104-0.557,5.714-1.441,9.023-2.494c3.151-1.006,6.516-1.061,7.547-1.611c0.432-0.23,0.978-0.16,1.453,0.184
		c0.667,0.494,0.448,0.602-1.736,0.863C230.253,218.508,221.536,222.297,221.23,220.691z M219.167,215.934
		c0.496-0.162,0.905-0.633,0.905-1.047c0-0.586,0.72-0.93,3.14-1.494c3.638-0.85,3.933-0.873,3.573-0.287
		c-0.308,0.492,4.146,0.951,2.757-0.721c-0.376-0.453-0.283-0.58,0.438-0.58c0.529,0,0.917,0.275,0.917,0.652
		c0,0.469,0.486,0.648,1.764,0.648c3.818,0,3.818,1.699,0.004,2.043c-4.184,0.383-3.228,1.156,1.05,0.857
		c4.434-0.316,4.697-0.131,0.76,0.535c-9.997,1.699-14.256,3.91-15.043,2.643c-0.318-0.52,1.988-1.064,2.588-1.238l-1.518-0.076
		c-1.343-0.066-1.223-0.143,1.06-0.693c1.414-0.344,2.78-0.535,3.03-0.432c0.252,0.104,0.122,0.207-0.299,0.223
		c-0.749,0.033-1.109,0.902-0.373,0.902c1.055,0,4.758-1.475,4.544-1.813c-0.13-0.215-0.659-0.27-1.174-0.127
		c-1.437,0.4-0.114-0.541,1.978-0.895c0.896-0.148,1.628-0.455,1.628-0.668c0-0.742-2.082-0.402-6.963,1.131
		C217.092,217.645,218.357,216.186,219.167,215.934z M224.334,212.236c-0.755,0-1.29-0.068-1.19-0.152
		c0.519-0.447,2.56-0.678,2.56-0.289C225.704,212.041,225.087,212.236,224.334,212.236z M214.345,199.414l2.08-0.477
		c2.283-0.523,3.807-0.174,4.245,0.967c0.24,0.625,0.84,0.705,4.172,0.574c5.533-0.213,4.391,0.682,0.291,0.842
		c-4.3,0.164-4.911,1.17,0.894,0.83c6.931-0.398,1.399,0.176-0.77,1.143c-0.673,0.301,2.938-0.043,4.78-0.455
		c0.714-0.156,0.933-0.092,0.649,0.193c-0.558,0.545-5.037,1.412-7.301,1.412c-1.324,0-1.629,0.123-1.251,0.5
		c0.486,0.486,5.292-0.021,7.209-0.76c0.383-0.15,0.694-0.066,0.694,0.18c0,1.25-7.167,1.605-2.601,1.793
		c4.294,0.18-1.294,1.041-5.413,1.648l3.032,0.076c3.555,0.098,2.698,0.736-1.579,1.186c-3.485,0.365-2.709,1.082,0.852,0.791
		c3.425-0.279,2.374,0.438-1.326,0.908c-3.004,0.383-4.233,0.977-3.201,1.551c0.399,0.223,0.6,0.611,0.441,0.861
		c-0.328,0.529-3.014,0.186-3.833-0.49C215.059,211.564,214.497,201.461,214.345,199.414z M211.848,214.574
		c0-0.693,1.114-0.818,1.514-0.174c0.146,0.24,0.151,0.621,0.01,0.852C213.018,215.826,211.848,215.307,211.848,214.574z
		 M209.068,204.668l1.988,0.012l-1.339-1.197c-1.666-1.486-1.677-1.713-0.066-1.15c2.086,0.73,3.495,4.146,1.65,3.998
		c-1.026-0.082-0.962,0.557,0.092,0.83c1.187,0.311,1.611,2.305,0.707,3.305c-0.668,0.738-0.645,0.83,0.277,1.475
		c0.541,0.377,0.755,0.697,0.47,0.711c-0.824,0.037-0.666-0.838-1.784-0.859c-1.093-0.021-4.168-2.643-1.813-2.025
		c0.987,0.258,1.113-0.119,0.322-0.949c-0.442-0.465-0.36-0.518,0.438-0.279c1.567,0.475,1.129-0.465-0.836-1.793
		C206.726,205.094,206.704,204.656,209.068,204.668z M209.347,201.072c-0.606-0.91-0.59-0.959,0.169-0.688
		c1.099,0.395,1.895,1.045,1.895,1.541C211.41,202.662,210.019,202.09,209.347,201.072z M206.217,202.924
		c0-0.871,0.262-0.816,1.372,0.297c0.747,0.742,0.785,0.879,0.185,0.65C206.643,203.434,206.217,203.756,206.217,202.924z
		 M205.436,199.447c0.11-0.104,0.765,0.432,1.463,1.193C208.871,202.801,205.017,199.867,205.436,199.447z M205.568,193.613
		c0.763,0.637,0.883-0.023,0.136-0.77c-0.7-0.699,0.033-1.301,0.442-0.639c0.623,1.01,4.528,1.867,4.119,2.938
		c-0.204,0.523-0.46,0.48-1.518-0.277c-0.706-0.504-1.398-0.793-1.546-0.646c-0.312,0.313-0.454,0.182,2.24,2.006
		c2.888,1.955,1.632,2.256-0.93,0.453c-2.615-1.842-3.03-0.967-2.183-0.934c0.414,0.021,0.753,0.24,0.753,0.486
		c0,0.662,4.33,2.893,4.33,3.73c0,0.879-0.594,0.711-1.729-0.498c-2.25-2.398-2.633-0.049-1.625,0.361
		c0.34,0.137,0.363,0.234,0.056,0.256c-0.884,0.063-1.714-1.277-1.048-1.688c0.442-0.273,0.263-0.693-0.781-1.807
		C204.874,195.076,204.255,192.533,205.568,193.613z M183.158,210.111c-1.009,0.188-2.523,0.525-3.358,0.756
		c-3.195,0.873-2.661,0.584-1.9-2.152c0.369-1.354,10.803-1.48,5.517-0.578c-6.55,1.119-5.168,2.053-3.726,1.773
		C185.359,208.83,187.183,209.375,183.158,210.111z M181.623,206.639c-3.253,0.453-3.642,0.438-3.451-0.141
		C178.522,205.447,188.304,205.705,181.623,206.639z M183.05,211.877l-2.29,0.557c-1.255,0.301-2.397,0.662-2.533,0.799
		c-0.564,0.561-1.492-0.219-0.983-0.832C177.844,211.682,180.459,211.844,183.05,211.877z M180.582,214.412
		c-2,0.467-3.382,0.49-3.382,0.049c0-0.334,2.983-0.924,4.681-0.924C182.907,213.537,182.165,214.033,180.582,214.412z
		 M178.701,216.848c-1.709,0.727-2.802,0.721-2.802-0.016C175.899,215.531,181.863,215.498,178.701,216.848z M175.244,208.064
		c0.799-0.305,1.363,0.941,0.756,1.688c-0.237,0.295-0.575,1.219-0.75,2.053c-0.448,2.131-0.737,2.471-1.213,1.406
		c-0.299-0.678-0.234-1.098,0.24-1.574c1.021-1.021,0.47-2.992-0.775-2.752c-1.077,0.201-1.268-2.25-0.256-3.262
		c0.732-0.727,1.895,0.508,1.595,1.699C174.649,208.088,174.741,208.262,175.244,208.064z M174.169,203.576
		c-1.149,0-1.149-0.863,0-0.863C175.321,202.713,175.315,203.576,174.169,203.576z M170.313,195.543
		c0.217-0.137,0.393-0.623,0.393-1.088c0-0.459,0.169-0.842,0.382-0.842c0.606,0,0.928,1.85,0.425,2.451
		c-0.677,0.82,0.389,1.449-0.519,1.449C170.154,197.514,169.821,195.842,170.313,195.543z M170.706,199.244c0,0.574-1.3,0.566-1.3,0
		C169.406,198.672,170.706,198.672,170.706,199.244z M170.488,190.152c0.36-0.58,1.648-0.564,1.298,0
		C171.433,190.73,170.138,190.719,170.488,190.152z M172.438,191.881c0,0.58-1.868,0.574-1.518,0
		C171.28,191.303,172.438,191.33,172.438,191.881z M172.613,213.17c-0.181,0.295-0.427,0.291-0.739-0.02
		c-0.25-0.256-0.344-0.588-0.196-0.732C172.094,212.008,172.918,212.674,172.613,213.17z M175.468,219.092
		c-1.042,0.043-1.055,0.023-0.24-0.588c0.93-0.701,3.272-0.869,3.272-0.236C178.5,218.693,177.303,219.016,175.468,219.092z
		 M173.307,221.953c0-0.672,0.966-1.924,1.49-1.924c0.476,0,0.492,0.215,0.087,1.084
		C174.452,222.047,173.307,222.658,173.307,221.953z M168.537,219.785c0-0.875,0.853-0.666,0.902-2.053
		c0.028-0.918,0.039-0.924,0.438-0.084c0.337,0.711,0.366,0.652,0.175-0.344c-0.285-1.453,0.151-2.406,0.704-1.539
		c0.301,0.475,0.373,0.463,0.376-0.066c0.006-0.824,1.602-1.875,1.956-1.293c0.143,0.223,0.055,0.791-0.196,1.262
		c-0.749,1.396-0.546,1.98,0.397,1.131c0.831-0.756,0.836-0.742,0.324,0.363c-0.289,0.629-0.749,1.055-1.021,0.951
		c-0.753-0.277-1.077,0.246-0.545,0.885c0.737,0.887,0.13,1.35-1.759,1.35C169.139,220.348,168.537,220.152,168.537,219.785z
		 M165.944,218.295c0-0.684,0.572-1.252,3.195-7.467c0.666-1.572,1.272-2.01,1.742-1.256c0.126,0.201-0.415,2.006-1.196,4.01
		c-0.782,1.998-1.547,3.977-1.699,4.396C167.686,218.775,165.944,219.047,165.944,218.295z M166.807,205.787
		c0-0.213,0.312-0.502,0.688-0.65c0.966-0.371,1.042-0.344,1.042,0.389C168.537,206.432,166.807,206.252,166.807,205.787z
		 M168.105,207.441c0,0.438-1.314,0.848-1.846,0.574c-0.185-0.094-0.218-0.35-0.082-0.574
		C166.5,206.918,168.105,206.918,168.105,207.441z M165.649,203.145c-0.454,0-0.546-0.275-0.334-0.979
		c0.41-1.332,0.61-1.48,1.044-0.781C166.844,202.166,166.451,203.145,165.649,203.145z M167.674,197.945
		c0,1.152-0.867,1.152-0.867,0C166.807,196.797,167.674,196.797,167.674,197.945z M167.735,203.527
		c1.064-0.674,1.999-0.443,1.064,0.266C167.686,204.635,166.982,204.008,167.735,203.527z M168.702,193.51
		c-0.393,1.453-0.853,1.174-0.901-0.545c-0.026-1.027,0.152-1.514,0.567-1.514C169.023,191.449,169.111,191.98,168.702,193.51z
		 M170.706,184.951c0,0.58-1.3,0.568-1.3,0S170.706,184.383,170.706,184.951z M172.442,185.705c2.688-1.164,2.955-0.727,0.865,1.414
		c-1.919,1.963-3.83,2.582-4.235,1.383c-0.272-0.82,2.497-0.258,2.497-0.951c0-0.234-0.191-0.432-0.432-0.432
		C170.161,187.119,170.816,186.41,172.442,185.705z M173.846,183.957c-1.577,0.623-1.839,0.645-1.839,0.143
		c0-0.375,2.189-1.742,2.79-1.742C175.562,182.357,174.845,183.564,173.846,183.957z M176.414,179.445
		c0.332,0.127-0.1,0.504-1.021,0.908c-2.426,1.049-1.689,1.572-3.25,1.572C169.106,181.926,175.272,179.021,176.414,179.445z
		 M176.336,175.428c0,0.238-0.441,0.432-0.978,0.424c-0.788-0.006-0.848-0.086-0.325-0.424
		C175.879,174.887,176.336,174.887,176.336,175.428z M177.456,177.229c0.368,0.584,0.022,0.842-1.638,1.234
		c-2.06,0.488-2.511,0.488-2.511-0.016c0-0.246,0.24-0.51,0.54-0.584C175.272,177.5,177.096,176.639,177.456,177.229z
		 M374.679,134.719c0,1.147-0.869,1.147-0.869,0C373.81,133.567,374.679,133.567,374.679,134.719z M381.451,143.31
		c0.322,1.256,0.813,2.709,1.092,3.228c5.632,10.472,1.633,68.541-0.797,59.25c-0.639-2.436-1.465,0.744-2.574,3.268
		c-0.905,2.068-0.344,2.436-1.249,3.182c-0.356,0.295-0.651,0.799-0.651,1.109c0,0.635-0.792,1.273-1.146,0.918
		c-0.328-0.328,1.365-3.254,1.037-3.582c-0.324-0.324-1.962,3.719-2.522,3.719c-0.597,0-0.12,1.102-1.013,1.447
		c-1.437,0.547,2.667-6.035,2.202-6.498c-0.11-0.111-0.841,1.086-1.618,2.662c-1.366,2.77-3.005,4.469-3.005,3.109
		c0-0.93,1.301-1.283,1.301-2.574c0-0.85-0.025-0.855-0.863-0.09c-0.479,0.424-0.868,1.18-0.868,1.664
		c0,0.674-0.119,0.766-0.502,0.389c-0.338-0.344-0.36-0.684-0.066-1.064c0.962-1.24,1.531-3.998-1.142,0.125
		c-1.016,1.563-1.561,2.064-1.889,1.736c-0.332-0.334-0.206-0.82,0.438-1.682c3.431-4.648,3.242-9.242,1.43-4.418
		c-2.671,7.115-8.164,8.535-4.827,5.121c0.747-0.762,1.36-1.621,1.36-1.904s0.272-0.738,0.606-1.012
		c0.813-0.676,0.797-1.898,1.365-3.25c0.873-2.096-0.759,0.029-1.966,2.557c-1.262,2.639-3.13,4.566-4.402,4.535
		c-0.405-0.006-0.351-0.193,0.18-0.59c0.774-0.586,2.922-4.297,2.922-5.047c0-0.836-0.672-0.369-1.206,0.83
		c-0.807,1.836-4.063,4.928-4.605,4.381c-0.688-0.689,0.739-1.9,1.481-5.354c0.257-1.158,0.628-2.424,0.83-2.813
		c0.809-1.541,1.07-5.5,0.328-4.879c-0.979,0.811-0.974,3.982-1.794,5.693c-0.813,1.686-1.43,5.869-2.254,6.553
		c-0.886,0.73-0.144,0.938-1.508,2.393c-1.213,1.289-0.999,1.348,5.581,1.584c5.266,0.186,6.61,0.561,6.61,1.852
		c0,1.129,4.979,3.543,0.971,2.99c-1.506-0.207-29.979-1.625-47.525-1.729c-16.188-0.1-22.483-0.461-40.054-0.875
		c-14.712-0.35-20.06-1.01-27.718-1.158l-4.979-0.092c-1.109-1.219-2.944-3.168-4.647-5.457c-1.58-2.119-4.749-4.242-7.746-5.184
		c-2.644-0.83-2.762-1.016-1.956-3.025c1.423-3.572-0.305-4.6,3.025-5.391c1.457-0.35,2.884-1.518,3.736-2.15l1.004,0.949
		c1.131,1.061,6.911,1.369,9.21,0.498c0.922-0.35,1.414-0.283,2.304,0.301c1.759,1.158,5.493,0.563,7.624,1.436
		c1.895,0.777,8.128,0.672,9.318,1.307c1.535,0.824,4.479-0.254,8.504,1.523c7.82,3.461,20.453,5.465,30.737,7.316
		c14.713,2.643,9.186,3.119,35.886,3.889c4.054,0.115,7.773,0.334,8.27,0.486c1.808,0.545,2.589-1.645,1.273-3.578
		c-1.613-2.369-0.744-1.932-1.895-3.172c-1.136-1.219-1.742-4.205-2.251-4.949c-0.163-0.24-0.632-1.453-1.038-2.701
		c-0.681-2.092-1.54-3.383-1.54-2.313c0,0.9,3.13,9.814,3.988,11.35c1.505,2.697,0.61,2.781-1.013,0.1
		c-1.507-2.484-2.828-5.582-3.862-9.033c-0.562-1.881-1.28-2.967-1.277-1.93c0.006,0.902,2.595,9.355,2.595,10.213
		c0,2.533-2.692-3.242-3.598-7.723c-0.285-1.391-0.712-2.516-0.946-2.496c-0.591,0.053-0.523,0.383,1.07,5.615
		c2.228,7.336,2.169,8.783-0.187,4.223c-1.392-2.703-0.967-1.299-0.42,1.301l0.251,1.191c-2.403-2.965-5.265-10.854-5.265-11.447
		c0-0.252-0.22-0.465-0.481-0.465c-0.617,0-0.332,1.141,1.835,7.287c2.748,7.793,0.793,6.158-2.189-1.836
		c-1.031-2.77-2.195-4.211-2.195-2.725c0,0.627,2.099,5.896,3.292,8.268c0.706,1.404,0.344,2.234-0.418,0.973
		c-0.581-0.949-1.519-2.016-2.071-2.652l0.262,1.209c0.396,1.82-1.086,0.869-2.173-1.391c-1.382-2.889-1.699-1.813-0.403,1.371
		c0.331,0.818-0.412,1.07-0.886,0.299c-0.188-0.295-0.464-0.207-0.798,0.24c-0.623,0.852-1.861,0.471-2.235-0.688
		c-0.143-0.455-0.441-0.824-0.665-0.824c-0.525,0-0.067-0.322-1.307-2.268l-0.905-1.414c0.48,2.156,0.519,2.311,1.054,5.193
		c-0.742-0.73-1.54-1.316-3.157-4.467c-1.918-3.742-2.55-2.828-0.792,1.152c0.756,1.709,1.255,3.227,1.108,3.375
		c-0.678,0.682-1.65-0.543-3.555-4.463c-3.391-6.979-3.915-5.605-0.655,1.703c2.439,5.457-0.377,3.113-3.103-2.588
		c-1.994-4.162-2.95-5.598-2.95-4.439c0,0.551,0.701,2.244,2.633,6.379c1.508,3.234,1.497,3.137,0.389,3.137
		c-0.693,0-1.382-1.035-3.213-4.791c-1.278-2.633-2.43-4.617-2.56-4.402c-0.345,0.551,0.727,4.322,1.839,6.496
		c1.021,2.006,0.896,2.951-0.305,2.295c-1.93-1.043-3.71-8.678-4.746-9.021c-2.092-0.701,3.124,6.805,2.142,7.787
		c-1.595,1.596-4.985-8.758-5.796-8.758c-1.541,0,3.562,7.471,2.671,8.021c-0.764,0.471-1.546-0.541-3.447-4.469
		c-2.108-4.352-1.976-4.154-2.527-3.816c-0.252,0.158,0.179,1.721,1.054,3.816c1.648,3.975,1.727,4.305,0.896,3.988
		c-1.76-0.672-3.064-6.793-4.037-7.602c-0.992-0.826-0.697,1.408,0.496,3.773c1.154,2.266,1.35,3.211,0.674,3.211
		c-0.519,0-2.617-3.027-2.617-3.77c0-0.922-1.371-4.023-1.781-4.023c-1.671,0,2.213,5.373,1.382,6.199
		c-0.612,0.617-1.66-0.363-2.169-2.02c-0.617-2.039-1.501-4.287-2.063-5.254c-0.94-1.625-1.006-0.367-0.11,2.193
		c1.454,4.18,1.437,4.078,0.672,4.078c-1.655,0-3.756-9.639-4.773-8.621c-0.225,0.219,0.894,4.102,1.513,5.26
		c0.524,0.988,0.513,2.494-0.021,2.494s-2.173-3.168-2.179-4.205c-0.006-1.061-1.561-3.348-1.901-2.797
		c-0.386,0.631,1.602,4.85,1.291,5.16c-1.574,1.574-3.639-8.34-4.82-7.158c-0.104,0.098,0.204,1.234,0.678,2.527
		c2.293,6.281-0.075,3.988-2.599-2.51c-0.301-0.777-0.732-1.412-0.967-1.412c-0.464,0-0.044,3.229,0.578,4.414
		c0.775,1.479,0.5,2.211-0.562,1.469c-0.7-0.486-1.099-0.535-1.518-0.186c-1.793,1.486-3.074-4.828-4.047-4.828
		c-0.525,0-0.552,0.977-0.049,1.533c0.698,0.771,1.381,3.381,0.989,3.775c-0.493,0.49-2.175-1.83-2.694-3.719
		c-0.474-1.715-1.512-3.219-1.937-2.797c-0.279,0.279,0.081,1.25,1.807,4.855c0.782,1.627,0.13,2.375-0.999,1.158
		c-1.463-1.57-3.195-8.822-4.293-7.729c-0.179,0.18,0.295,1.742,1.05,3.467c2.9,6.598,0.759,5.756-2.486-0.982
		c-2.457-5.111-1.457-1.512-0.442,0.596c0.973,2.008,1.061,2.871,0.295,2.871c-0.617,0-2.568-3.348-3.322-5.707
		c-1.164-3.617-2.661-2.6-1.119,0.35c0.754,1.449,0.633,2.566,0.624,3.408l-1.066-1.299c-0.584-0.717-1.064-1.537-1.064-1.818
		c-0.006-0.805-0.967-2.727-1.359-2.727c-0.197,0-0.165,0.498,0.065,1.109c0.537,1.404,0.545,2.785,0.022,2.785
		c-0.448,0-1.764-2.436-1.764-3.26c0-0.656-1.069-1.59-1.419-1.24c-0.545,0.547,2.714,6.379,2.148,6.947
		c-0.445,0.449-1.465-0.639-2.426-2.584c-0.96-1.932-1.217-1.338-0.415,0.961c0.96,2.76-0.814,2.176-1.787-0.928
		c-0.321-1.016-0.725-2.016-0.905-2.223c-0.519-0.605,0.065-1.568,0.956-1.568c0.89,0,1.009-0.332,0.436-1.234
		c-0.879-1.391-1.992-0.35-2.128,1.996c-0.197,3.402-1.819,2.279-1.819-1.262c0-0.848-0.185-1.242-0.535-1.127
		c-0.612,0.201-0.502,3.322,0.136,3.986c0.218,0.225,0.399,0.957,0.399,1.623c0,1.633-1.147,1.588-1.508-0.055
		c-0.151-0.699-0.558-1.502-0.901-1.787c-0.792-0.654-0.786-0.125,0.013,2.131c0.617,1.764-0.013,2.711-0.882,1.311
		c-0.517-0.848-0.529,0.777-1.658,0.34c-0.781-0.303-0.933-1.826-0.23-2.262c0.283-0.176,0.354-0.939,0.179-1.973
		c-0.312-1.852,0.612-2.432,1.485-0.934c0.362,0.617,0.45,0.449,0.46-0.861l0.01-1.629c-4.756,0-5.378-0.088-4.751,0.66
		c0.743,0.902,0.269,1.25-0.879,0.639c-1.224-0.654-1.759-0.107-0.672,0.688c1.021,0.744,0.288,0.814-1.911,0.186
		c-0.931-0.266-1.65-0.279-1.901-0.025c-0.57,0.568,1.414,0.639,3.184,1.432l1.087,0.486c-3.66,0.609-3.435-1.063-7.362-1
		c0.797,0.666,1.76,1.615,3.736,2.145c0.934,0.26,1.589,0.652,1.449,0.875c-0.378,0.613-1.137,0.51-2.912-0.398
		c-2.229-1.135-5.997-2.322-6.325-1.994c-0.371,0.373,1.038,1.414,3.305,2.447c1.017,0.465,1.743,1.018,1.605,1.234
		c-0.279,0.449-1.005,0.191-4.916-1.725c-6.39-3.141-0.552,1.025,0.486,1.41c0.415,0.152,0.756,0.52,0.756,0.814
		c0,0.414-0.115,0.418-0.519,0.016c-0.284-0.291-0.917-0.529-1.411-0.541c-0.486-0.01-1.665-0.496-2.615-1.082
		c-2.568-1.568-2.831-1.66-3.36-1.131c-0.356,0.355,0.317,0.854,2.523,1.879c2.245,1.045,2.763,1.438,2.053,1.551
		c-0.519,0.084-1.687-0.33-2.595-0.928c-1.942-1.27-3.905-1.449-5.122-1.645l1.298,0.9c1.644,1.137,0.596,1.158-1.889,0.029
		c-2.299-1.045-2.224-1.045-2.224-0.018c0,0.939,2.987,1.648,4.906,1.168c0.601-0.152,1.665,0.076,2.621,0.563
		c1.823,0.934,1.392,1.563-0.716,1.053c-0.769-0.184-3.13-0.344-5.242-0.354c-5.801-0.031-3.418-0.754-5.25-2.064
		c-0.562-0.4-0.468-1.578-0.883-3.588c-0.438-2.141,1.593-2.705,3.795-5.955c0.824-1.223,5.572-4.904,7.788-6.033
		c0.781-0.404,5.5-2.697,10.483-5.1s9.283-4.688,9.569-5.076c0.873-1.189,1.686-0.248,0.862,1.008
		c-0.785,1.201-0.749,4.965,0.062,5.23c0.535,0.174,3.62-3.779,3.62-4.652c0-0.996,8.335-8.465,7.132-10.404
		c-0.474-0.77-1.408-0.42-2.653,0.992c-3.036,3.453-5.069,4.305-3.38,1.42c1.025-1.748,1.123-2.822,0.26-2.822
		c-0.175,0-1.304,0.924-2.5,2.055c-6.029,5.689-6.198,5.797-18.302,11.803c-13.168,6.525-18.062,11.064-19.279,17.863
		c-0.424,2.369,0.137,2.453-7.833-5.293l-0.043-3.365c-0.191-13.91,3.769-14.85,3.063-12.639c-0.24,0.76-0.124,0.881,0.732,0.76
		c0.759-0.107,0.989-0.393,0.912-1.119c-0.11-0.992,0.486-1.32,0.967-0.541c0.35,0.563,1.819,0.557,2.169-0.004
		c0.633-1.027-3.37-3.234-0.289-4.791c3.772-1.9,13.44-6.898,14.183-6.898c0.315,0,1.223-0.279,2.004-0.616
		c4.134-1.803,8.313-3.288,11.6-4.125c4.718-1.202,7.672-2.562,9.848-4.524c2.638-2.38,3.215-1.368,1.774,3.104
		c-0.71,2.194-0.787,2.879-0.36,3.277c0.655,0.61,0.72,0.457,1.927-4.262c1.115-4.375,1.885-4.698,3.243-1.355
		c1.624,4.005,4.048,4.962,2.633,1.031c-1.9-5.259-0.698-9.714,3.191-11.807c3.178-1.715,0.929-2.747-2.344-1.075
		c-3.396,1.731-4.178,3.8-5.5,3.091c-1.092-0.581-2.375,0.192-3.959,2.381c-1.88,2.587-3.6,3.713-8.724,5.702
		c-7.378,2.856-12.506,5.278-17.974,7.097c-5.678,1.889-6.117,2.665-10.174,4.229c-3.26,1.254-3.72,1.549-6.607,2.779
		c-2.393,1.014-1.115,1.779-2.503,2.221c-1.298,0.416-1.693,2.18-3.625,3l-1.337,0.568l1.191,0.322
		c1.622,0.432,1.501,1.076-0.22,1.141c-0.775,0.029-1.064,0.139-0.649,0.246c1.026,0.268,0.966,1.432-0.071,1.432
		c-2.287,0-2.741,1.301-0.662,1.301c1.278,0,1.726,1.092-0.447,0.736c-1.982-0.322-2.622,0.447-0.153,0.842
		c2.082,0.332,1.316,0.934-1.268,0.994c-1.61,0.031-1.95,0.893-0.348,0.893c1.417,0,1.901,0.863,0.594,0.869
		c-2.468,0.018-4.655,1.295-1,1.295c2.501,0,2.842,0.869-0.518,0.869c-2.826,0-2.682,0.561,0.3,1.213l1.949,0.426l-1.518,0.109
		c-3.174,0.223-4.763-0.443-4.763,0.594c0,1.258,7.171,0.367,4.582,1.143c-0.694,0.207-2.08,0.262-3.081,0.125
		c-1.73-0.234-3.348,0.613-2.009,1.055c1.042,0.35,0.457,0.918-1.083,1.047c-2.855,0.24-2.262,1.213,0.743,1.213
		c2.418,0,2.626,0.072,2.107,0.701c-0.452,0.545-1.063,0.643-2.762,0.447c-2.714-0.318-4.561,0.545-1.098,0.633
		c4.698,0.115,5.167,0.717,0.594,0.771c-6.444,0.074-7.531,1.336-1.184,1.375c5.073,0.031,4.33,0.65-1.187,0.988
		c-5.058,0.307-5.466,0.836-1.146,1.473l2.709,0.4l-2.698,0.344c-3.458,0.438-3.081,1.09,0.667,1.143
		c3.234,0.051,2.283,0.684-1.219,0.809c-1.758,0.061-1.839,0.109-0.869,0.502c1.485,0.588,5.714-0.094,4.55,0.234
		c-2.167,0.617-2.545,1.381-0.59,1.186c2.812-0.283,0.771,0.541-2.277,0.924c-4.713,0.578-4.129,1.988-1.009,1.152
		c3.522-0.939,6.705-0.58-0.007,1.025c-1.675,0.402-3.227,0.9-3.456,1.107c-0.46,0.42-0.159,0.465,2.796,0.443
		c2.06-0.018,1.427,0.326-1.846,1.006c-0.649,0.137-1.19,0.457-1.19,0.719c0,0.289,0.376,0.361,0.977,0.176
		c1.55-0.475,5.335-0.814,4.987-0.441c-0.252,0.271-4.025,1.119-7.231,1.629c-0.393,0.059-0.737-0.461-0.94-1.412
		c-0.386-1.822-1.773-3.043-3.467-3.043c-1.473,0-1.632-0.965-0.645-3.992c1.076-3.299,0.634-4.281,2.656-7.291
		c1.561-2.314,2.134-4.936,0.852-3.871c-1.25,1.037,0.449-4.146,1.823-5.555c0.306-0.311,0.558-0.738,0.558-0.945
		c0-0.525,2.027-3.857,7.366-12.125c7.171-11.091,5.037-10.306,7.575-11.003c1.982-0.548,3.681-3.207,3.681-5.759
		c0-2.688,5.789-6.893,10.606-7.713c2.497-0.419,10.765-4.839,14.724-6.172c4.469-1.501,13.902-4.664,16.674-5.614
		c2.956-1.009,5.735-1.038,6.572-1.726c1.448-1.197,5.348-1.327,7.472-3.895c1.185-1.431,1.304-1.479,1.84-0.747
		c0.677,0.928,0.764,2.354,0.143,2.354c-0.24,0-0.431-0.229-0.431-0.515c0-0.818-1.272,1.083-1.288,1.924
		c-0.017,0.89,0.458,0.973,1.233,0.213c0.449-0.438,0.498-0.22,0.246,1.143c-0.525,2.834,0.633,1.68,2.131-2.125
		c1.609-4.092,3.282-5.275,2.643-1.874c-1.054,5.614,0.033,6.772,1.37,1.458c1.19-4.741,2.523-6.817,4.819-7.505
		c2.124-0.634,7.858-0.671,9.464-0.061c1.693,0.639,3.156-0.763,2.442-2.342c-2.153-4.719-11.361-3.986-19.892,1.583
		c-8.034,5.238-16.09,8.886-25.042,11.333c-3.37,0.924-2.649,0.93-11.18,4.111c-8.903,3.322-7.024,3.207-12.022,4.917
		c-5.841,1.998-9.678,3.396-10.561,3.849c-2.568,1.311-7.777,8.247-10.329,13.731c-3.927,8.448-6.084,9.827-9.01,14.602
		c-4.181,6.814-6.976,4.584-3.37-2.689c1.168-2.357,2.128-4.482,2.128-4.725c0.007-0.639,7.031-8.825,8.265-11.041
		c1.19-2.145,2.831-3.935,5.659-8.107c2.446-3.6,7.434-6.904,11.622-7.702c1.557-0.289,4.042-1.234,5.199-1.971
		c1.551-0.989,2.976-1.219,6.281-3.217c2.148-1.3,1.988-1.147,8.967-4.517c7.953-3.84,12.983-5.975,20.913-8.887
		c1.431-0.523,3.221-1.278,3.98-1.68c1.803-0.95,2.474-0.946,2.082,0.02c-1.327,3.225,0.159,3.454,1.962,0.309
		c2.543-4.447,2.439-1.29,1.719-0.848c-0.72,0.448-0.525,1.959,0.218,1.676c0.356-0.143,0.651-0.499,0.651-0.798
		c0-0.924,3.063-4.621,2.342-1.742c-0.421,1.677,0.444,1.278,1.087-0.502c0.531-1.465,3.016-4.676,3.354-4.333
		c0.081,0.077-0.163,0.765-0.54,1.518c-0.378,0.76-0.596,1.619-0.486,1.913c0.282,0.754,0.66-1.257,1.987-2.452
		c0.502-0.454,0.912-1.005,0.912-1.225c0-0.967,3.069-2.599,5.92-3.15c1.596-0.312,5.173,0.645,6.943,1.852
		c3.364,2.299,4.924,3.199,7.59,4.408c1.604,0.725,3.21,1.32,3.578,1.32c0.369,0,1.005,0.186,1.419,0.409
		c1.218,0.668,9.121,3.878,9.429,4.381c0.326,0.525,7.19,3.795,9.402,5.26c1.786,1.191,13.713,8.465,16.133,10.42
		c1.939,1.567,5.964,4.216,6.274,4.652c0.37,0.519,2.813,1.371,3.461,2.584c0.52,0.967,10.396,6.237,14.358,6.237
		c3.441,0,1.235,1.136,4.343,1.136c3.889,0-2.06-1.736,2.948-1.736c5.637,0,4.44,16.095,5.188,24.47
		c0.765,8.568-2.141,21.943,0.23,24.309c0.698,0.703,0.662,0.814-0.662,1.965c-1.408,1.23-1.124,1.635,0.526,0.756
		c1.248-0.672,2.06,0.156,1.316,1.348c-0.477,0.764-0.421,0.857,0.529,0.857c0.585,0,1.223,0.24,1.414,0.541
		c0.36,0.568,1.15,0.633,9.308,0.744c5.04,0.068,7.088-0.363,6.717-1.426c-0.126-0.361-1.557-0.471-4.975-0.367
		c-11.322,0.344-14.758-3.113-13.081-13.135c0.399-2.359,0.54-24.109,0.191-28.799c-0.661-8.881-2.043-14.726-3.693-15.611
		c-2.779-1.486,0.678-2.773,6.74-2.511c0.717,0.032,3.351-0.07,5.85-0.237C380.041,140.213,380.719,140.454,381.451,143.31z
		 M262.188,119.456c0.098-0.301,0.639-0.613,1.207-0.694c0.895-0.132,0.957-0.061,0.454,0.54
		C263.17,120.121,261.931,120.23,262.188,119.456z M248.375,169.168c0.138-0.371,0.466-0.672,0.716-0.672
		c0.322,0,0.318,0.277-0.021,0.906C248.533,170.406,247.971,170.215,248.375,169.168z M260.708,198.496
		c0.545-0.203,4.44,0.793,6.351,1.617c1.596,0.688-0.529,0.508-3.205-0.273C260.014,198.721,260.057,198.74,260.708,198.496z
		 M282.166,202.713c0.873,0,1.382,0.863,0.535,0.863C281.832,203.576,281.319,202.713,282.166,202.713z M381.691,211.01
		c0.071-0.596,0.376-1.164,0.671-1.262c0.733-0.242,1.13,0.938,0.787,2.309C382.777,213.543,381.5,212.619,381.691,211.01z
		 M392.248,209.299c-0.509,2.393-0.895,5.139-1.981,7.264c-1.202,2.361-0.722,3.037-1.3,3.037c-0.684,0-0.525-0.432,0.802-4.357
		c1.421-4.217,1.771-6.467,3.06-14.48l-0.163,3.35c-0.279,5.646,1.063,3.834,1.063,0.781c0-0.902,0.257-1.857,0.568-2.115
		c0.693-0.572,0.557,3.77-0.207,6.764c-0.579,2.254-1.267,2.854-0.934,0.811C393.423,208.693,392.582,207.709,392.248,209.299z
		 M399.773,222.199c-1.342,0-1.281,2.355-1.604,0.52c-0.24-1.398,0.722-2.311,1.758-2.158c1.563,0.219,4.615-6.92,4.628-10.813
		c0.004-1.012,0.206-1.842,0.453-1.842c0.848,0,0.944,1.316,0.251,3.441c-1.032,3.156-0.455,4.041-1.35,4.789
		c-0.361,0.295-0.649,0.727-0.649,0.961C403.259,218.736,400.895,222.199,399.773,222.199z M403.351,220.412
		c1.404-2.318,1.628-2.822,1.634-3.686c0.005-0.502,0.282-1.146,0.623-1.432c0.856-0.709-0.421,4.217-1.371,5.277
		C403.285,221.631,402.68,221.521,403.351,220.412z M404.132,163.754c0.214,5.227,0.471,8.963,0.766,11.021
		c1.365,9.623-1.056,25.992-2.917,36.053c-0.045,0.225-0.891,0.098-0.891-0.131c0,0,1.099-4.238,1.754-13.184
		c0.688-9.389,2.092-9.609,0.885-26.391c-0.323-4.494-0.332-6.834-0.037-7.129C403.931,163.76,404.126,163.65,404.132,163.754z
		 M403.69,163.084c-0.573-0.357-0.563-2.381,0-2.381C404.259,160.703,404.28,163.449,403.69,163.084z M399.845,172.613
		c0.34,0,0.558,0.371,0.503,0.861c-0.351,3.256-0.192,25.768-1.175,25.768C399.026,199.244,398.955,172.613,399.845,172.613z
		 M399.358,169.795c-0.567,0-0.567-2.162,0-2.162C399.932,167.633,399.932,169.795,399.358,169.795z M399.332,202.963
		c0.018,0.732-0.113,1.48-0.294,1.66c-0.513,0.52-0.618-0.781-0.153-1.938C399.299,201.652,399.304,201.658,399.332,202.963z
		 M400.876,201.484c0.57-0.568,0.104,5.293-0.655,8.316c-0.474,1.881-0.862,3.486-0.862,3.572c0,0.146-0.627,0.602-0.272-1.027
		C399.49,210.49,400.571,201.789,400.876,201.484z M400.467,213.373c0.28-1.102,1.062-1.6,1.062-0.676
		C401.527,213.723,399.736,216.283,400.467,213.373z M403.619,210.703c-0.704,1.545-0.885,1.371-0.541-0.523
		C403.914,205.52,404.684,208.371,403.619,210.703z M397.982,153.121c-0.7-5.331-0.606-5.844-1.031-8.117
		c-0.411-2.2,0.464-2.277,0.866,0.432c0.171,1.131,0.606,4.009,0.97,6.392c0.867,5.659,1.262,15.373,0.627,15.373
		c-0.698,0-0.218-3.986-0.632-4.65c-0.144-0.23-0.279-1.66-0.301-3.186C398.453,157.835,398.229,155.028,397.982,153.121z
		 M396.072,155.29c-0.677-10.166-0.685-10.439-0.045-9.641c0.742,0.921,1.196,5.23,1.878,17.828
		c0.237,4.232,0.188,4.691-0.441,4.449c-0.502-0.191-0.7-0.021-0.7,0.586c0,1.414,1.038,0.07,1.158,2.344
		c0.138,2.707-1.152,0-1.168,2.035c-0.011,1.875-1.288,7.025-1.016-4.266c0.213-8.701-0.995-10.884-1.421-17.451
		c-0.12-1.787-0.382-3.637-0.585-4.119c-0.519-1.193-0.836-4.946-0.443-5.188c0.334-0.207,0.451,0.419,1.557,8.657
		C395.776,157.42,396.367,159.713,396.072,155.29z M393.86,192.805l-0.308,1.459c-0.191-0.988-0.496-2.088-0.326-5.029
		C393.553,183.646,394.794,188.332,393.86,192.805z M393.864,183.984c-0.108-0.416-0.108-1.191-0.004-1.73
		C394.11,180.947,394.133,184.988,393.864,183.984z M392.641,156.59c-0.769-5.612-0.764-5.545-0.207-5.201
		c0.235,0.146,0.432,0.813,0.432,1.481c0,1.888,0.688,2.25,1.049,6.881c0.362,4.631,0.885,4.891,0.438,6.471
		C393.876,167.867,393.913,165.934,392.641,156.59z M394.908,196.322c0.318-4.424,0.901-6.232,0.944-2.92
		C395.93,199.074,394.52,201.707,394.908,196.322z M395.142,210.076c0.552,0,0.013,1.887-0.398,4.449
		C393.919,219.66,394.312,210.076,395.142,210.076z M396.131,186.918c-0.404,3.221-0.848,2.84-0.438-0.432
		C396.099,183.258,396.536,183.652,396.131,186.918z M395.968,182.184c-0.197-0.121-0.274-0.814-0.164-1.541
		C396.345,176.945,396.585,182.566,395.968,182.184z M397.869,194.914c-0.204,2.977-0.328,6.439-0.285,7.689
		c0.077,2.068-0.448,3.059-0.924,1.73c-0.272-0.781,0.913-13.67,0.89-17.213C397.393,165.279,398.797,181.133,397.869,194.914z
		 M397.682,212.57c-2.358,4.664-1.287,4.418-2.653,7.248c-0.457,0.951-0.841,1.973-0.852,2.271
		c-0.018,0.742-0.881,0.688-0.881-0.059c0-0.887,1.295-2.777,1.301-3.754c0-0.371,0.163-0.855,0.367-1.082
		c0.2-0.229,0.813-1.83,1.359-3.559C398.262,207.449,398.316,211.309,397.682,212.57z M387.458,214.727
		c0.376-2.023,0.366-2.572,0.785-3.242c0.525-0.842,1.521-4.977,1.488-6.176c-0.035-1.127,0.277-4.732,0.724-8.445
		c0.444-3.703,0.646-6.701,0.882-13.387c0.124-3.555,0.344-6.576,0.484-6.713c0.781-0.775-0.578,24.9-1.573,29.631
		C389.031,212.203,386.551,219.588,387.458,214.727z M386.966,199.463c-0.234,5.549-0.529,7.52-1.003,6.756
		C385.464,205.412,387.403,189.244,386.966,199.463z M385.759,139.243c-0.338-0.46-0.519-0.985-0.403-1.17
		c0.354-0.584,1.01,0.12,1.01,1.082C386.365,140.054,386.355,140.061,385.759,139.243z M388.042,189.873
		c0.22,4.242-1.469,3.402-1.06,1.791c0.389-1.547,0.602-8.924,1.212-9.525C388.889,181.457,387.896,187.016,388.042,189.873z
		 M388.13,163.852c0.256,0.951,0.322,2.24,0.144,2.863c-0.63,2.152-1.557-8.121-0.564-7.498
		C388.435,159.658,387.436,161.258,388.13,163.852z M388.534,176.725c0,1.924-0.868,0.957-0.868,0
		C387.666,175.771,388.534,174.805,388.534,176.725z M388.233,178.998c0.108-0.414,0.2-0.076,0.2,0.76
		C388.435,181.795,387.971,180.008,388.233,178.998z M386.547,140.459c0.366-0.37,1.213,2.102,1.365,4.003
		c0.075,0.95,0.338,3.191,0.579,4.978c1.205,8.947-0.371,6.281-0.383,4.041C388.097,151.617,386.027,140.972,386.547,140.459z
		 M389.015,160.211c0.249-0.406,0.376-0.143,0.376,0.82C389.407,164.088,388.414,161.154,389.015,160.211z M389.489,165.791
		c-0.344,1.027-0.523,0.535-0.469-1.299c0.043-1.688,0.076-1.732,0.349-0.541C389.534,164.666,389.589,165.49,389.489,165.791z
		 M389.479,147.708c0.022-1.76,0.057-1.819,0.357-0.651c0.484,1.913,0.484,4.6,0,3.47
		C389.627,150.05,389.469,148.782,389.479,147.708z M389.194,136.298c0.628,0.24,1.121,2.665,2.13,6.198
		c1.083,3.801,0.788,10.374-0.201,3.418C390.511,141.601,388.435,136.009,389.194,136.298z M391.172,157.453
		c0.425,2.112,0.961,15.51,0.425,12.993C391.106,168.15,390.708,155.137,391.172,157.453z M386.737,211.85
		c-1.06,3.791-0.671,4.162-1.345,4.43c-0.753,0.307-0.791,0.602-0.281-1.121c0.605-2.068,1.199-6.014,2.544-11.73
		c1.409-5.998,0.896-12.518,1.704-18.258c0.234-1.666,0.409-3.32,0.382-3.682c-0.191-2.736,0.257-11.988,0.48-9.963
		c0.389,3.539-0.409,21.912-1.283,29.609C388.49,205.082,388.119,206.9,386.737,211.85z M380.839,137.767l-0.302,1.064l-0.151-1.01
		C380.118,136.019,381.39,135.795,380.839,137.767z M376.408,134.599c-0.474-0.039-0.866-0.195-0.866-0.354
		c0-0.497,1.151-1.268,1.447-0.967C377.583,133.873,377.239,134.66,376.408,134.599z M379.136,137.602
		c-0.351,0.914-0.564,0.685-0.558-0.61C378.588,135.163,379.396,136.927,379.136,137.602z M382.646,133.633
		c0.509,1.43,0.858,2.955,0.771,3.392c-0.214,1.08-0.269,0.982-1.584-2.955c-0.639-1.907-1.449-3.785-1.797-4.174
		c-0.558-0.617-0.554-0.73,0.049-0.96C380.813,128.651,380.965,128.936,382.646,133.633z M384.192,132.121
		c0,0.578-0.05,0.578-0.422,0c-0.234-0.36-0.419-0.946-0.419-1.3c0-0.58,0.043-0.58,0.419,0
		C384.001,131.174,384.192,131.76,384.192,132.121z M384.296,141.646c-0.496,0-1.132-1.083-0.541-2.092
		c0.395-0.673,0.42-0.673,0.438,0C384.208,140.657,384.88,141.646,384.296,141.646z M385.503,135.85
		c0,0.847-0.869,0.338-0.869-0.535C384.634,134.469,385.503,134.982,385.503,135.85z M388.295,132.798
		c0.415,2.212,0.971,3.022,0.348,2.637c-0.672-0.415-0.753-2.468-1.736-4.398c-3.288-6.461,0.328-2.391,0.328-1.063
		C387.234,131.181,387.867,130.531,388.295,132.798z M392.434,130.411c0,0.818-0.438,0.37-1.32-1.366
		c-0.499-0.978-0.82-1.864-0.717-1.968C390.627,126.85,392.434,129.815,392.434,130.411z M392.434,137.417
		c0.476,0.988,0.848,2.293,0.831,2.899c-0.032,1.083-0.05,1.076-0.47-0.186c-0.704-2.099-2.589-5.597-2.797-7.251
		c-0.218-1.771-2.037-4.49-1.755-5.232c0.236-0.639,0.499,0.584,2.06,3.921C392.139,135.495,391.123,134.709,392.434,137.417z
		 M393.498,129.306c2.022,4.076,4.075,13.988,2.661,12.813c-0.93-0.775-1.683-3.823-1.453-5.209c0.225-1.339-0.405-4.371-0.493-2.73
		c-0.025,0.536-0.224,0.972-0.431,0.972c-0.6,0-0.943-1.886-0.405-2.216C394.422,132.29,391.953,126.179,393.498,129.306z
		 M395.934,130.603l-0.655-1.083C394.137,127.629,394.603,125.593,395.934,130.603z M399.578,142.295
		c0.059,1.667,0.315,3.91,0.574,4.981c2.15,8.974,3.697,44.938,1.272,42.512c-0.361-0.359-0.34-0.762,0.08-1.543
		c0.925-1.727-0.681-31.104-2.2-40.32c-0.316-1.906-0.53-4.608-0.469-6.012c0.056-1.398-0.071-2.764-0.279-3.032
		c-0.557-0.704-2.354-6.776-2.086-7.044C397.299,131.001,399.441,138.189,399.578,142.295z M398.939,130.389
		c0.011,0.354,0.497,1.622,1.08,2.812c0.584,1.19,1.064,2.594,1.07,3.113c0.006,0.525,0.175,1.061,0.389,1.19
		c0.677,0.415,0.688,3.601,2.407,9.552c1.907,6.632,1.836,14.655,2.399,19.926c0.579,5.455,0.611,38.76-0.427,38.76
		c-0.765,0-0.032-1.303-1.146-0.381c-0.755,0.621-0.749,0.012,0.033-3.086c0.84-3.359,1.437-23.955,0.856-29.881
		c-0.863-8.842-0.848-22.89-2.381-21.356c-0.218,0.218-0.197,1.488,0.043,2.967c0.524,3.207,0.557,6.145,0.055,5.592
		c-0.606-0.676-1.447-11.104-0.934-11.618c0.542-0.544,0.58-2.118,0.056-2.675c-0.208-0.225-0.694-1.875-1.07-3.659
		c-1.519-7.161-1.917-8.559-3.25-11.426C395.038,123.578,398.906,129.062,398.939,130.389z M405.968,218.988
		c-0.109-0.104,0.104-0.742,0.474-1.414c0.749-1.365,2.354-6.27,2.591-7.936c0.288-1.994,1.193-3.555,1.003-1.732
		C409.62,211.963,406.753,219.773,405.968,218.988z M408.409,219.906c0.349-0.35,0.48-0.301,0.48,0.186
		c0,0.855-0.584,1.443-0.798,0.799C407.998,220.617,408.141,220.172,408.409,219.906z M418.616,185.066
		c0.382,1.393-0.099,4.512-0.613,3.947c0,0-3.876-38.854-4.145-40.657c-0.109-0.71-0.005-1.589,0.224-1.943
		c0.376-0.58,0.427-0.58,0.443,0l3.234,26.631c0.376,2.623,0.649,6.129,0.604,7.793C418.321,182.51,418.432,184.412,418.616,185.066
		z M415.422,204.406c-0.094,1.576-0.503-0.104-0.525-2.18c-0.038-2.912,0.464-5.947,1.044-6.305
		C416.7,195.449,415.432,204.193,415.422,204.406z M415.568,208.879c0.509-0.514,0.711,0.266,0.383,1.469l-0.338,1.24
		C415.552,211.113,415.257,209.189,415.568,208.879z M416.252,185.17c0.519,1.213,0.519,3.25,0,3.25
		C415.717,188.42,415.662,183.799,416.252,185.17z M415.798,182.51c-0.574-0.566-0.76-5.664-0.83-6.865
		C415.328,177.162,417.011,183.723,415.798,182.51z M416.395,193.762c-0.525,0.523-0.58,0.311-0.58-2.313
		c0-1.439,0.197-2.598,0.438-2.598C416.727,188.852,416.858,193.297,416.395,193.762z M417.983,192.313
		c0.312-0.48,0.42-0.223,0.426,1.006C418.419,196.191,416.862,194.045,417.983,192.313z M418.847,199.463
		c0.571-0.355,0.578,1.512,0,1.512C418.295,200.975,418.267,199.824,418.847,199.463z M419.386,211.74
		c0.275,0.268,0.237,0.979-0.104,2.004c-0.666,2.018-0.879,1.803-0.562-0.568C418.879,211.98,419.119,211.467,419.386,211.74z
		 M419.765,215.945c0.387,0.24-0.039,1.924-0.486,1.924c-0.188,0-0.46-0.326-0.613-0.727
		C418.387,216.432,419.168,215.58,419.765,215.945z M420.511,186.918c0.957,2.104-0.555,21.928-0.746,6.52
		c-0.039-2.834-0.176-5.584-0.312-6.121C419.107,185.945,419.921,185.635,420.511,186.918z M420.511,206.605
		c-0.055,2.547-0.185,3.033-0.813,3.033C418.841,209.639,420.631,201.205,420.511,206.605z M420.436,219.311
		c0.229,0.23-1.131,3.762-1.763,4.576c-1.055,1.363-0.727-0.824,0.414-2.773C419.729,220.02,420.336,219.205,420.436,219.311z
		 M416.502,215.918c-0.577-5.291,0.159,0.777,2.268-13.855C418.458,209.408,418.426,208.797,416.502,215.918z M416.197,207.186
		c-0.055,0.602-0.655-0.924,0.077-1.602C417.121,204.805,416.307,206.115,416.197,207.186z M415.771,217.486l-0.569,1.031
		c-0.186-1.027-0.498-2.309-0.312-4.264c0.22-2.322,0.852-0.963,0.586,0.441C415.072,216.803,416.819,215.586,415.771,217.486z
		 M414.874,220.43c-0.315,0.498-0.638,0.705-0.719,0.459c-0.082-0.252,0.087-0.742,0.383-1.098
		C415.302,218.869,415.552,219.342,414.874,220.43z M413.499,195.219c0.375-3.822,1.016-4.117,1.016-0.465
		c0,1.678-0.12,3.176-0.273,3.328C413.544,198.779,413.259,197.684,413.499,195.219z M413.739,180.451
		c0.563,3.273,0.781,5.713,0.573,6.494c-0.431,1.621-0.562,1.201-1.271-3.977l-0.586-4.295c-0.235,13.891,0.241,21.342-1.502,25.164
		c-0.676,1.49-1.003,0.484-0.348-1.088c1.074-2.6,0.474-33.326-0.694-35.211c-0.169-0.285,0.896-1.77,1.316,4.338
		c0.153,2.275,0.644,3.582,0.748,1.998c0.109-1.752-0.187-6.537-0.487-7.762c-0.278-1.129,0.045-4.975,0.421-4.975
		c0.234,0,0.312,0.551,0.169,1.244c-0.136,0.688,0.065,2.879,0.448,4.871C413.625,172.939,412.38,172.531,413.739,180.451z
		 M407.852,169.145c-0.318-6.242-0.284-7.273,0.225-6.795c0.905,0.854,0.425,5.453,0.956,12.213
		c1.278,16.326-0.379,39.406-2.831,39.406c-0.225,0-0.305-0.338-0.18-0.76c1.049-3.555,2.076-8.939,2.044-10.715
		C407.928,195.607,408.621,184.438,407.852,169.145z M406.351,155.394c-0.58-2.426-0.448-3.794-0.422-4.868l0.552,1.301
		C407.097,153.269,408.322,163.623,406.351,155.394z M407.453,147.407c1.312,0.813,2.012,10.984,2.086,11.783
		c0.542,5.609-0.162,3.463-1.08-3.292C407.382,147.987,406.924,147.085,407.453,147.407z M406.759,135.397
		c-0.933-3.134-0.966-4.33-0.059-1.884c0.785,2.125,1.32,2.714,1.32,3.55c0,0.922,0.919,2.627,1.109,3.932
		c0.229,1.583,1.485,5.309,1.496,7.777c0.021,4.054,2.044,12.011,0.886,11.296c-0.224-0.137-0.513-1.074-0.639-2.081
		C409.256,145.201,408.611,141.656,406.759,135.397z M413.651,202.898c0,1.326-0.245,1.436-0.558,0.246
		C412.795,201.996,413.651,201.412,413.651,202.898z M412.675,220.156c-0.532,1.148-1.191,1.572-1.191,0.771
		c0-0.65,0.867-0.564,0.867-1.787c0-0.463,0.197-0.842,0.431-0.842C413.356,218.301,413.33,218.748,412.675,220.156z
		 M411.124,218.086c-0.077-0.381,0.179-1.189,0.578-1.797c1.055-1.605,1.366-0.855,0.393,0.951
		C411.539,218.289,411.222,218.561,411.124,218.086z M410.424,215.268c-0.12,0-0.098-0.631,0.049-1.408
		c0.289-1.568,1.012-2.648,1.012-1.52C411.484,213.188,410.729,215.268,410.424,215.268z M410.343,221.031
		c-0.46,0.465-0.999-0.115-0.739-0.797c0.133-0.352,0.416-0.635,0.629-0.635C410.675,219.6,410.758,220.617,410.343,221.031z
		 M402.374,133.769c0.022,0.694-0.847,0.36-0.847-0.808c0-1.207-0.376-0.151-1.446-2.397c-0.532-1.115-0.588-1.508-0.192-1.388
		C400.479,129.361,402.346,132.809,402.374,133.769z M404.864,142.082c0.938,4.556,1.207,7.975,0.594,7.598
		c-0.729-0.453,0.256-0.868-0.382-1.666c-0.604-0.759-1.665-9.64-2.517-11.005c-0.743-1.191-0.782-2.425-0.071-2.187
		C403.11,135.031,403.931,137.534,404.864,142.082z M404.389,132.633c0.885,0.879,1.115,2.845,2.088,6.63
		c1.473,5.756,0.021,6.029-0.405,3.359C404.815,134.731,402.637,130.879,404.389,132.633z M405.699,131.689
		c-0.141,0-0.552-0.58-0.912-1.278c-0.868-1.677-0.889-2.606-0.042-1.744C405.394,129.335,406.137,131.689,405.699,131.689z
		 M407.288,129.438c0.677,0.857,2.835,6.954,4.021,11.342c1.447,5.374,4.031,31.258,3.02,30.266
		c-0.415-0.406-1.239-8.346-1.355-9.912c-1.267-17.606-2.845-19.462-4.314-25.262c-1.632-6.455-3.03-7.358-2.698-8.782
		C406.285,125.692,406.448,128.373,407.288,129.438z M412.782,140.044c0,0.999-0.594-0.289-2.004-4.326
		c-2.287-6.548-2.822-8.382-2.615-8.935c0.109-0.293,0.327-0.141,0.506,0.356c0.62,1.687,2.383,6.074,2.383,6.621
		C411.053,134.349,412.782,139.406,412.782,140.044z M414.079,143.943c-0.013,2.208-0.847,0.127-0.853-0.915
		C413.216,141.787,414.089,142.016,414.079,143.943z M420.975,179.758c0.021,3.211-0.847,0.01-1.485-5.494
		c-0.911-7.793-3.215-24.375-5.358-35.124c-0.545-2.728,0.455-1.47,0.46-1.284c0,0,1.932,5.969,2.954,12.451
		c1.355,8.587,1.628,6.337,2.18,14.726C420.32,174.127,420.959,177.465,420.975,179.758z M421.14,211.816
		c0.218,0.252-0.509,3.021-0.787,3.021c-0.114,0-0.201-0.443-0.196-0.979C420.161,212.855,420.835,211.457,421.14,211.816z
		 M421.124,209.496c-0.104-0.438-0.07-0.906,0.071-1.045c0.47-0.475,0.797,0.279,0.453,1.063
		C421.325,210.254,421.303,210.254,421.124,209.496z M421.877,183.896c0,0.777-0.863,0.963-0.863-0.268
		C421.014,182.416,421.877,183.105,421.877,183.896z M418.387,230.256c-2.397-0.137-8.504-0.328-13.57-0.422
		c-6.674-0.129-9.466-0.338-10.138-0.758c-0.73-0.455-1.037-0.465-1.456-0.043c-0.668,0.664-12.48,0.758-12.48,0.092
		c0-0.236,0.436-0.443,0.971-0.459c1.125-0.033,0.995-0.021-1.19-0.924c2.922-1.125-2.31-0.295,31.066,0.305
		c7.82,0.139,9.114,0.26,10.054,0.947C423.445,230.305,422.927,230.506,418.387,230.256z M422.129,217.059
		c0.163-1.211,0.453-2.107,0.643-1.988C423.757,215.674,421.314,223.176,422.129,217.059z M423.014,181.488
		c-0.53,0-0.699-0.426-0.699-1.73c0-2.453,0.862-1.82,0.868-0.973C423.199,180.381,424.072,181.488,423.014,181.488z
		 M423.738,195.076c-0.682,0.684-0.986-0.73-1.263-5.842c-0.288-5.43,0.352-8.486,0.87-4.18
		C423.783,188.645,424.023,194.793,423.738,195.076z M423.723,204.193c-0.419,0.42-0.863-1.584-0.906-4.08l-0.038-1.951l0.633,1.461
		C424.089,201.178,424.253,203.65,423.723,204.193z M424.788,223.451c-1.813,0.523-1.852,0.523-2.173,0.207
		c-0.597-0.602,0.593-1.973,1.244-1.436c0.464,0.385,0.764,0.393,1.217,0.016c0.458-0.383,0.655-0.344,0.848,0.158
		C426.105,222.855,425.766,223.166,424.788,223.451z M427.251,230.004c0.756,0.307,0.645,0.371-0.632,0.395
		c-1.808,0.031-2.993-1.045-4.473-2.137c0.797,0,2.315,0.115,2.61-0.65c0.513-1.342,2.005-0.77,1.791,0.689
		C426.388,229.359,426.536,229.715,427.251,230.004z M428.441,200.434c-0.06,1.668-0.64,2.486-1.004,1.42
		c-0.077-0.234-0.044-2.135,0.068-4.221c0.12-2.092,0.088-5.266-0.074-7.053c-0.448-4.941-0.415-12.645,0.049-12.357
		c0.224,0.135,0.399,0.779,0.389,1.436c-0.006,0.65,0.18,2.84,0.418,4.859C428.665,187.672,428.71,192.668,428.441,200.434z
		 M429.463,213.504c-0.288,2.508-0.279,2.563,0.672,2.316c0.852-0.225,0.934-0.127,0.7,0.807c-0.753,3-0.479,7.773-1.6,7.08
		c-0.777-0.48,0.491-2.791-0.47-3.943c-1.157-1.404,0.404-3.938-1.114-3.457c-0.799,0.25-1.025-7.684-0.313-10.979
		c0.41-1.885,1.07-0.043,1.001,2.797c-0.1,4.199,0,4.994,0.486,3.785C429.508,210.205,429.77,210.855,429.463,213.504z
		 M430.186,206.066c-0.182,4.521-0.931,4.697-0.946,0.219c-0.021-5.281-0.017-5.359,0.307-5.883
		C430.047,199.594,430.338,202.188,430.186,206.066z M431.347,212.822c-1.255,4.844-0.207-4.041,0.165-11.627
		c0.13-2.721-0.149-7.865-0.389-7.145c-0.606,1.807-0.75,1.807-1.055,0c-0.49-2.889-0.463-7.799,0.038-7.799
		c0.24,0,0.432,0.979,0.432,2.17c0,1.557,0.169,2.162,0.601,2.162C432.849,190.584,432.991,206.465,431.347,212.822z
		 M432.745,214.166c0.531-0.328,0.492,1.371-0.071,3.408c-0.862,3.105,1.209,1.91-0.141,3.971c-0.973,1.484-1.021,1.414-0.901-1.225
		C431.778,217.162,432.265,214.455,432.745,214.166z M433.712,211.609c-0.863,2.547-1.146,2.092-0.688-1.092
		c0.183-1.279,0.581-2.404,0.876-2.502C434.646,207.764,434.574,209.074,433.712,211.609z"/>
	<path d="M428.939,219.441c0.12,0.121,0.306,0.053,0.415-0.139c0.484-0.855,0.73-2.734,0.364-2.734
		C429.271,216.568,428.596,219.092,428.939,219.441z"/>
	<path d="M352.592,201.195c-0.75-2.361-1.278-3.316-1.699-3.055c-0.47,0.289,1.583,6.494,3.55,10.738
		c1.574,3.396,2.91,4.467,2.91,2.326c0-0.563-0.317-1.289-0.698-1.605C355.891,208.961,353.449,203.92,352.592,201.195z"/>
	<path d="M373.832,210.469c0.704-1.324,0.218-1.477-0.622-0.191C372.237,211.756,373.197,211.648,373.832,210.469z"/>
	<path d="M356.698,204.617c-2.73-5.342-2.155-7.104-3.063-7.104c-1.386,0,0.013,1.473,0.908,4.926
		c0.987,3.801,2.931,6.936,3.768,6.098C358.452,208.398,357.727,206.635,356.698,204.617z"/>
	<path d="M332.153,207.146c-0.606-2.244-2.501-6.33-2.797-6.035C328.67,201.799,333.547,212.248,332.153,207.146z"/>
	<path d="M359.085,204.832c0-0.744-2.004-3.906-2.387-5.758c-0.196-0.955-0.375-1.135-0.764-0.748
		c-0.387,0.389-0.383,0.709,0.031,1.371c0.295,0.477,0.94,1.932,1.427,3.24C358.194,205.072,359.085,206.07,359.085,204.832z"/>
	<path d="M342.399,201.627c-0.344-2.105-1.25-3.846-0.842-1.301C341.902,202.428,342.811,204.182,342.399,201.627z"/>
	<path d="M359.997,201.523c-1.181-2.16-1.758-2.559-1.251-0.869C359.391,202.805,360.581,202.58,359.997,201.523z"/>
	<path d="M327.035,201.652c0-0.648-0.774-1.342-1.119-0.998c-0.299,0.305,0.296,1.621,0.739,1.621
		C326.867,202.275,327.035,201.996,327.035,201.652z"/>
	<path d="M361.019,199.609c0.165-0.398-0.043-1.371-0.455-2.166C358.626,193.711,360.386,201.156,361.019,199.609z"/>
	<path d="M373.077,190.299c-2.37-2.895-4.762-2.498-6.623,1.107c-0.901,1.742,1.217,6.691,2.773,6.473
		c0.256-0.033,0.981-0.141,1.605-0.24C374.099,197.135,375.345,193.063,373.077,190.299z M371.793,195.422
		c-0.95,1.055-2.358,1.004-3.564-0.119c-1.59-1.482-0.548-4.283,1.595-4.283C372.155,191.018,373.351,193.701,371.793,195.422z"/>
	<path d="M280.412,196.541c-0.147-0.775-0.475-1.797-0.737-2.277c-0.818-1.508-0.889,0.775-0.071,2.354
		C280.489,198.326,280.746,198.299,280.412,196.541z"/>
	<path d="M182.612,197.08c-0.354,0.582,2.092,0.582,1.736,0C184,196.514,182.966,196.514,182.612,197.08z"/>
	<path d="M381.799,194.945c-0.267,0.438,0.46,0.908,0.826,0.535c0.432-0.432,0.328-8.873-0.104-8.607
		C381.98,187.207,382.123,194.428,381.799,194.945z"/>
	<path d="M380.527,183.117c-0.272,5.93-0.2,6.756,0.47,5.67c0.422-0.686,0.886-10.33,0.568-11.881
		C381.128,174.754,380.822,176.578,380.527,183.117z"/>
	<path d="M383.012,177.484c0.104-1.016,0.028-2.025-0.175-2.254C382.21,174.529,382.45,182.734,383.012,177.484z"/>
	<path d="M380.631,173.492c-0.207,1.082,0.168,1.73,0.7,1.203C382.127,173.891,381.063,171.236,380.631,173.492z"/>
	<path d="M381.99,166.332c-0.468,0,0.062,1.408,0.188,5.059c0.113,3.467,0.727,4.104,0.72,0.754
		C382.892,168.986,382.477,166.332,381.99,166.332z"/>
	<path d="M377.031,142.25c-1.72,0-1.71-0.18-0.229,3.72c0.497,1.307,0.905,3.158,0.905,4.112c0,2.438,1.459,9.718,1.939,13.978
		c0.404,3.537,1.229,3.664,0.868,0c-1.191-11.982-4.468-24-2.36-20.668c0.324,0.515,0.405,0.466,0.411-0.251
		C378.571,142.409,378.299,142.25,377.031,142.25z"/>
	<path d="M382.733,160.92c0.355,1.59,0.606,1.939,0.596,0.83C383.319,160.752,382.285,158.916,382.733,160.92z"/>
	<path d="M382.625,158.643c0.289-0.469-0.918-9.925-1.381-10.831c-0.213-0.414-0.301-0.989-0.197-1.278
		c0.448-1.245-0.501-1.797-1.287-0.749c-0.739,0.983-0.732,1.038,0.108,1.492c1.328,0.71,0.431,1.829,1.514,5.457
		C382.597,156.834,381.898,159.811,382.625,158.643z"/>
	<path d="M246.688,153.924c1.654-1.705,2.114-3.099,0.775-2.365c-1.791,0.983-4.233,3.949-3.244,3.949
		C244.732,155.507,245.841,154.793,246.688,153.924z"/>
	<path d="M254.399,153.892c0.315-0.606-0.191-4.449-0.59-4.449c-0.519,0-0.502,4.208,0.016,4.53
		C254.043,154.11,254.306,154.071,254.399,153.892z"/>
	<path d="M374.443,142.168c-0.23,0.071-0.387,0.325-0.36,0.564c0.704,5.139,1.955,10.4,2.375,9.979
		C377.063,152.111,375.12,141.958,374.443,142.168z"/>
	<path d="M373.143,146.239c-0.191-1.738-0.672-2.884-1.097-2.623c-0.601,0.372,0.463,1.361,0.463,2.766
		C372.51,147.542,373.297,147.647,373.143,146.239z"/>
	<path d="M380.304,142.542c0-1.81-0.863-1.628-0.863-0.269C379.44,143.605,380.304,144.376,380.304,142.542z"/>
	<path d="M254.432,132.699c0.863-0.863-1.676-2.07-5.679-2.692c-2.289-0.36-3.725,0.192-1.812,0.694
		C248.529,131.115,253.089,134.042,254.432,132.699z"/>
	<path d="M232.526,214.396c0.535,0.004,0.971-0.188,0.971-0.428c0-0.539-0.458-0.539-1.298,0
		C231.674,214.309,231.739,214.389,232.526,214.396z"/>
	<path d="M412.782,177.426c0-0.869-0.862-1.383-0.862-0.535C411.92,177.764,412.782,178.271,412.782,177.426z"/>
	<path d="M396.388,162c0,0.799,0.749,2.672,0.749,1.732C397.136,162.934,396.388,161.066,396.388,162z"/>
	<path d="M440.502,221.6c0-1.674-1.3-1.188-1.3-0.535c0,0.326,0.295,0.834,0.648,1.135
		C440.402,222.652,440.502,222.559,440.502,221.6z"/>
</g>
</svg>
